<svg width="224" height="213" viewBox="0 0 224 213" fill="none" xmlns="http://www.w3.org/2000/svg">
<g id="Group">
<g id="Group_2">
<path id="Vector" d="M169.351 137.814L215.148 111.348L138.105 66.7609L92.3085 93.4652L169.351 137.814Z" fill="#0C9FE1"/>
<path id="Vector_2" d="M92.3085 115.878L169.351 160.465V137.814L92.3085 93.4652V115.878Z" fill="#0C5778"/>
<path id="Vector_3" d="M169.351 160.465L215.148 133.76V111.348L169.351 137.814V160.465Z" fill="#9BE0FF"/>
</g>
<g id="Group_3">
<path id="Vector_4" d="M79.4282 192.891L168.397 141.628L91.3543 97.0417L2.38519 148.305L79.4282 192.891Z" fill="#0C9FE1"/>
<path id="Vector_5" d="M2.38519 167.856L79.4282 212.204V192.891L2.38519 148.305V167.856Z" fill="#0C5778"/>
<path id="Vector_6" d="M79.4282 212.204L168.397 160.941V141.628L79.4282 192.891V212.204Z" fill="#9BE0FF"/>
</g>
<g id="Group_4">
<g id="Group_5">
<path id="Vector_7" d="M28.3842 118.024L25.2834 116.355L32.2006 112.301L35.3014 113.97L28.3842 118.024Z" fill="#0C9FE1"/>
<path id="Vector_8" d="M28.3842 148.305L25.2834 146.397V116.355L28.3842 118.024V148.305Z" fill="#9BE0FF"/>
<path id="Vector_9" d="M28.3842 148.305L35.3014 144.251V113.97L28.3842 118.024V148.305Z" fill="#0C5778"/>
</g>
<g id="Group_6">
<path id="Vector_10" d="M65.8324 96.3264L62.7316 94.4189L69.6487 90.3656L72.7495 92.2731L65.8324 96.3264Z" fill="#0C9FE1"/>
<path id="Vector_11" d="M65.8324 126.369L62.7316 124.7V94.4189L65.8324 96.3264V126.369Z" fill="#9BE0FF"/>
<path id="Vector_12" d="M65.8324 126.369L72.7496 122.315V92.2731L65.8324 96.3264V126.369Z" fill="#0C5778"/>
</g>
<g id="Group_7">
<path id="Vector_13" d="M47.2275 87.5044L43.8882 85.597L51.0439 81.5436L54.1447 83.4511L47.2275 87.5044Z" fill="#0C9FE1"/>
<path id="Vector_14" d="M47.2275 137.337L43.8882 135.429V85.597L47.2275 87.5044V137.337Z" fill="#9BE0FF"/>
<path id="Vector_15" d="M47.2275 137.337L54.1447 133.283V83.4511L47.2275 87.5044V137.337Z" fill="#0C5778"/>
</g>
<g id="Group_8">
<path id="Vector_16" d="M84.6757 65.8071L81.5749 63.8997L88.4921 60.0848L91.5929 61.7538L84.6757 65.8071Z" fill="#0C9FE1"/>
<path id="Vector_17" d="M84.6757 115.639L81.5749 113.732V63.8997L84.6757 65.8071V115.639Z" fill="#9BE0FF"/>
<path id="Vector_18" d="M84.6757 115.639L91.5929 111.586V61.7538L84.6757 65.8071V115.639Z" fill="#0C5778"/>
</g>
</g>
<g id="Group_9">
<path id="Vector_19" d="M79.6667 100.38C79.4282 100.141 79.1897 100.38 78.7126 100.38L1.19262 144.966C0.477046 145.443 0 146.159 0 146.874C0 147.351 0.238538 147.589 0.238538 147.589L77.043 191.938L156.233 144.251L79.6667 100.38Z" fill="#535359"/>
<path id="Vector_20" d="M156.471 145.682C156.471 146.397 155.994 147.112 155.517 147.589L77.9971 192.176C77.7585 192.414 77.52 192.414 77.2815 192.176C77.52 192.176 77.52 192.176 77.7586 191.938L155.04 147.351C155.517 147.112 155.994 146.397 155.994 145.682C155.994 145.443 155.994 145.205 155.756 145.205C156.233 144.966 156.471 145.205 156.471 145.682Z" fill="#535359"/>
<path id="Vector_21" d="M155.994 145.443C155.994 146.159 155.517 146.874 155.04 147.351L77.52 191.938C77.2815 191.938 77.2815 192.176 77.043 192.176C76.8045 192.176 76.8044 191.938 76.8044 191.699C76.8044 190.984 77.2815 190.269 77.7586 190.03L155.279 145.443C155.517 145.443 155.517 145.205 155.756 145.205C155.994 144.967 155.994 145.205 155.994 145.443Z" fill="#939598"/>
<path id="Vector_22" d="M155.517 144.967C155.994 144.728 156.471 144.967 156.471 145.443C156.471 146.159 155.994 146.874 155.517 147.112L77.9971 191.699C77.52 191.938 77.043 191.699 77.043 191.222C77.043 190.507 77.52 189.792 77.9971 189.553L155.517 144.967ZM155.517 144.728L77.9971 189.315C77.2815 189.792 76.8044 190.745 76.8044 191.461C76.8044 192.176 77.2815 192.653 77.9971 192.176L155.517 147.589C156.233 147.112 156.71 146.159 156.71 145.443C156.71 144.728 155.994 144.251 155.517 144.728Z" fill="#303033"/>
<path id="Vector_23" d="M77.7585 101.095L78.2356 100.618L155.04 144.966L154.563 145.205L77.7585 101.095Z" fill="#303033"/>
<path id="Vector_24" d="M75.8503 102.049L76.3274 101.81L153.132 146.159L152.655 146.397L75.8503 102.049Z" fill="#303033"/>
<path id="Vector_25" d="M73.9421 103.241L74.4192 103.003L151.224 147.351L150.747 147.589L73.9421 103.241Z" fill="#303033"/>
<path id="Vector_26" d="M72.034 104.433L72.511 104.195L149.077 148.305L148.6 148.543L72.034 104.433Z" fill="#303033"/>
<path id="Vector_27" d="M70.1258 105.387L70.6029 105.148L147.169 149.497L146.692 149.735L70.1258 105.387Z" fill="#303033"/>
<path id="Vector_28" d="M67.9791 106.579L68.6946 106.341L145.261 150.689L144.784 150.927L67.9791 106.579Z" fill="#303033"/>
<path id="Vector_29" d="M66.0709 107.771L66.548 107.533L143.352 151.643L142.875 151.881L66.0709 107.771Z" fill="#303033"/>
<path id="Vector_30" d="M64.1627 108.725L64.6398 108.486L141.444 152.835L140.967 153.073L64.1627 108.725Z" fill="#303033"/>
<path id="Vector_31" d="M62.2545 109.917L62.7316 109.679L139.536 154.027L139.059 154.265L62.2545 109.917Z" fill="#303033"/>
<path id="Vector_32" d="M60.3464 111.109L60.8234 110.871L137.628 154.981L137.151 155.458L60.3464 111.109Z" fill="#303033"/>
<path id="Vector_33" d="M58.4382 112.301L58.9152 111.824L135.481 156.173L135.004 156.411L58.4382 112.301Z" fill="#303033"/>
<path id="Vector_34" d="M56.53 113.255L57.007 113.017L133.573 157.365L133.096 157.603L56.53 113.255Z" fill="#303033"/>
<path id="Vector_35" d="M54.3833 114.447L54.8603 114.209L131.665 158.557L131.188 158.796L54.3833 114.447Z" fill="#303033"/>
<path id="Vector_36" d="M52.4751 115.639L52.9521 115.401L129.757 159.511L129.28 159.749L52.4751 115.639Z" fill="#303033"/>
<path id="Vector_37" d="M50.5669 116.593L51.0439 116.355L127.848 160.703L127.371 160.941L50.5669 116.593Z" fill="#303033"/>
<path id="Vector_38" d="M48.6587 117.785L49.1358 117.547L125.94 161.895L125.463 162.134L48.6587 117.785Z" fill="#303033"/>
<path id="Vector_39" d="M46.7505 118.977L47.2276 118.739L123.793 162.849L123.316 163.326L46.7505 118.977Z" fill="#303033"/>
<path id="Vector_40" d="M44.8423 120.17L45.3194 119.693L121.885 164.041L121.408 164.279L44.8423 120.17Z" fill="#303033"/>
<path id="Vector_41" d="M42.9341 121.123L43.4112 120.885L119.977 165.233L119.5 165.472L42.9341 121.123Z" fill="#303033"/>
<path id="Vector_42" d="M40.7875 122.315L41.2645 122.077L118.069 166.187L117.592 166.664L40.7875 122.315Z" fill="#303033"/>
<path id="Vector_43" d="M38.8793 123.508L39.3563 123.031L116.161 167.379L115.684 167.618L38.8793 123.508Z" fill="#303033"/>
<path id="Vector_44" d="M36.9711 124.461L37.4481 124.223L114.253 168.571L113.776 168.81L36.9711 124.461Z" fill="#303033"/>
<path id="Vector_45" d="M35.0629 125.654L35.5399 125.415L112.344 169.763L111.867 170.002L35.0629 125.654Z" fill="#303033"/>
<path id="Vector_46" d="M33.1547 126.846L33.6318 126.607L110.198 170.717L109.721 170.956L33.1547 126.846Z" fill="#303033"/>
<path id="Vector_47" d="M31.2465 127.799L31.7236 127.561L108.289 171.909L107.812 172.148L31.2465 127.799Z" fill="#303033"/>
<path id="Vector_48" d="M29.0998 128.992L29.5768 128.753L106.381 173.101L105.904 173.34L29.0998 128.992Z" fill="#303033"/>
<path id="Vector_49" d="M27.1917 130.184L27.6687 129.945L104.473 174.055L103.996 174.532L27.1917 130.184Z" fill="#303033"/>
<path id="Vector_50" d="M25.2834 131.376L25.7605 130.899L102.565 175.247L102.088 175.486L25.2834 131.376Z" fill="#303033"/>
<path id="Vector_51" d="M23.3753 132.33L23.8523 132.091L100.657 176.439L100.18 176.678L23.3753 132.33Z" fill="#303033"/>
<path id="Vector_52" d="M21.4671 133.522L21.9441 133.283L98.5101 177.632L98.033 177.87L21.4671 133.522Z" fill="#303033"/>
<path id="Vector_53" d="M19.5589 134.714L20.0359 134.475L96.6019 178.585L96.1248 178.824L19.5589 134.714Z" fill="#303033"/>
<path id="Vector_54" d="M17.6507 135.668L18.1278 135.429L94.6937 179.778L94.2166 180.016L17.6507 135.668Z" fill="#303033"/>
<path id="Vector_55" d="M15.504 136.86L15.9811 136.621L92.7855 180.97L92.3085 181.208L15.504 136.86Z" fill="#303033"/>
<path id="Vector_56" d="M13.5958 138.052L14.0729 137.814L90.8773 181.923L90.4003 182.4L13.5958 138.052Z" fill="#303033"/>
<path id="Vector_57" d="M11.6876 139.244L12.1647 138.767L88.9691 183.116L88.4921 183.354L11.6876 139.244Z" fill="#303033"/>
<path id="Vector_58" d="M9.77948 140.198L10.2565 139.959L86.8224 184.308L86.5839 184.546L9.77948 140.198Z" fill="#303033"/>
<path id="Vector_59" d="M7.87128 141.39L8.34832 141.152L84.9143 185.5L84.4372 185.738L7.87128 141.39Z" fill="#303033"/>
<path id="Vector_60" d="M5.96307 142.582L6.44011 142.344L83.0061 186.454L82.529 186.692L5.96307 142.582Z" fill="#303033"/>
<path id="Vector_61" d="M3.81641 143.536L4.29345 143.297L81.0979 187.646L80.6208 187.884L3.81641 143.536Z" fill="#303033"/>
<path id="Vector_62" d="M1.9082 144.728L2.38524 144.49L79.1897 188.838L78.7126 189.076L1.9082 144.728Z" fill="#303033"/>
</g>
<g id="Group_10">
<path id="Vector_63" d="M206.323 52.455L215.148 49.3554L137.151 4.29177L124.509 0L126.656 5.48393L206.323 52.455Z" fill="#0C5778"/>
<path id="Vector_64" d="M179.846 129.945L215.148 109.44V49.3554L202.506 44.8252L179.846 58.1773V129.945Z" fill="#9BE0FF"/>
<path id="Vector_65" d="M182.947 83.928V85.8354L206.8 72.2448V57.4621L205.13 56.7468V71.2911L182.947 83.928Z" fill="#0C5778"/>
<path id="Vector_66" d="M182.947 63.4228V83.928L205.13 71.2911V56.7467L198.213 54.6009L182.947 63.4228Z" fill="#0C9FE1"/>
<path id="Vector_67" d="M179.846 58.1773L202.506 44.8252L124.509 0L101.849 13.1137L179.846 58.1773Z" fill="#0C9FE1"/>
<path id="Vector_68" d="M101.849 84.8817L179.846 129.945V58.1773L101.849 13.1137V84.8817Z" fill="#0C5778"/>
</g>
<g id="Group_11">
<path id="Vector_69" d="M172.929 88.935L176.507 86.5507V75.3444L172.929 77.4903V88.935Z" fill="#808080"/>
<path id="Vector_70" d="M101.372 36.2416L134.527 59.1311L172.929 77.4903L176.507 75.3444L104.95 34.0957L101.372 36.2416Z" fill="#ADADAD"/>
<path id="Vector_71" d="M101.372 47.4479L172.929 88.935V77.4903L101.372 36.2416V47.4479Z" fill="#666666"/>
<path id="Vector_72" d="M103.996 41.7256L170.305 79.8746V83.4511L103.996 45.0636V41.7256Z" fill="#050505"/>
</g>
<g id="Group_12">
<path id="Vector_73" d="M96.6018 57.4621L162.911 95.6111L149.554 118.501L83.2445 80.3515C81.5749 79.3978 80.3823 77.2519 80.3823 74.3907C80.3823 68.4299 84.6757 61.0385 89.6847 58.1774C92.547 56.5083 94.9322 56.5083 96.6018 57.4621Z" fill="#ADADAD"/>
<path id="Vector_74" d="M156.233 96.3264C150.985 99.426 146.93 106.579 146.93 112.54C146.93 118.501 151.224 120.885 156.233 118.024C161.242 115.163 165.535 107.771 165.535 101.81C165.774 95.8495 161.48 93.2268 156.233 96.3264Z" fill="#D1D3D4"/>
<path id="Vector_75" d="M90.1617 58.1773L156.471 96.3264C151.224 99.426 147.169 106.579 147.169 112.54V132.33L80.8593 94.1805V74.3907C80.6208 68.4299 84.9142 61.0385 90.1617 58.1773Z" fill="white"/>
<path id="Vector_76" d="M156.233 103.241C155.279 103.718 154.324 104.672 153.847 105.864C153.132 107.056 152.893 108.248 152.893 109.202C152.893 111.348 154.563 112.301 156.471 111.109C157.425 110.632 158.379 109.679 158.856 108.486C159.572 107.294 159.81 106.102 159.81 105.148C159.81 103.003 158.141 102.049 156.233 103.241Z" fill="#659EC9"/>
</g>
<g id="Group_13">
<path id="Vector_77" d="M77.997 87.9813L144.306 126.13L130.949 149.02L64.6398 110.871C62.9701 109.917 61.7775 107.771 61.7775 104.91C61.7775 98.9491 66.0709 91.5578 71.0799 88.6966C73.9422 87.266 76.3274 87.0276 77.997 87.9813Z" fill="#ADADAD"/>
<path id="Vector_78" d="M61.7775 85.1201L128.087 123.269V143.059C128.087 146.159 129.041 148.066 130.949 149.02L64.6398 110.871C62.9701 109.917 61.7775 107.771 61.7775 104.91V85.1201Z" fill="white"/>
<path id="Vector_79" d="M137.628 126.846C132.38 129.945 128.325 137.098 128.325 143.059C128.325 149.02 132.619 151.404 137.628 148.543C142.875 145.443 146.93 138.29 146.93 132.33C146.93 126.369 142.637 123.984 137.628 126.846Z" fill="#D1D3D4"/>
<path id="Vector_80" d="M137.628 133.76C136.674 134.237 135.72 135.191 135.243 136.383C134.527 137.575 134.289 138.767 134.289 139.721C134.289 141.867 135.958 142.821 137.866 141.628C138.82 141.152 139.775 140.198 140.252 139.006C140.967 137.814 141.206 136.621 141.206 135.668C140.967 133.522 139.536 132.568 137.628 133.76Z" fill="#659EC9"/>
</g>
<path id="Vector_81" d="M90.1617 58.1773C90.1617 58.1773 93.7396 56.0314 97.3174 54.124C100.657 52.2165 102.088 46.4942 104.235 45.302L107.335 43.633L170.544 80.113V83.6895C168.874 84.6433 166.489 91.0809 163.627 92.5115C160.765 94.1805 156.471 96.5648 156.471 96.5648L90.1617 58.1773Z" fill="white"/>
<g id="Group_14">
<path id="Vector_82" d="M59.1537 79.1593L125.463 117.308L112.106 140.198L45.7964 102.049C44.1268 101.095 42.9341 98.9492 42.9341 96.088C42.9341 90.1272 47.2275 82.7358 52.2365 79.8746C55.0988 78.2056 57.4841 78.2056 59.1537 79.1593Z" fill="#ADADAD"/>
<path id="Vector_83" d="M49.6128 82.0205C50.5669 81.0668 51.521 80.3515 52.4751 79.8746C55.0988 78.444 57.4841 78.2056 59.1537 79.1593L125.463 117.308L121.885 123.508L49.6128 82.0205Z" fill="white"/>
<path id="Vector_84" d="M118.784 118.024C113.537 121.123 109.482 128.276 109.482 134.237C109.482 140.198 113.775 142.582 118.784 139.721C124.032 136.621 128.087 129.468 128.087 123.508C128.087 117.547 124.032 114.924 118.784 118.024Z" fill="#D1D3D4"/>
<path id="Vector_85" d="M52.4751 79.8746L118.784 118.024C113.537 121.123 109.482 128.276 109.482 134.237V154.027L43.1727 115.878V96.088C43.1727 90.1272 47.4661 82.7358 52.4751 79.8746Z" fill="white"/>
<path id="Vector_86" d="M118.784 124.938C117.83 125.415 116.876 126.369 116.399 127.561C115.684 128.753 115.445 129.945 115.445 130.899C115.445 133.045 117.115 133.999 119.023 132.806C119.977 132.33 120.931 131.376 121.408 130.184C122.124 128.992 122.362 127.799 122.362 126.846C122.362 124.7 120.693 123.746 118.784 124.938Z" fill="#659EC9"/>
</g>
<path id="Vector_87" d="M33.8703 132.091C39.1178 128.992 43.1727 121.839 43.1727 115.878L55.3374 121.123L95.6478 144.013L109.482 154.027C109.482 159.988 105.189 167.379 100.18 170.24L79.1897 182.4L12.8802 144.251L33.8703 132.091Z" fill="white"/>
<g id="Group_15">
<path id="Vector_88" d="M40.3104 109.679L106.62 147.828L93.2625 170.717L26.9531 132.568C25.2834 131.614 24.0908 129.468 24.0908 126.607C24.0908 120.646 28.3842 113.255 33.3932 110.394C36.2555 108.963 38.6407 108.725 40.3104 109.679Z" fill="#ADADAD"/>
<path id="Vector_89" d="M99.9412 148.543C94.6937 151.643 90.6388 158.796 90.6388 164.756C90.6388 170.717 94.9322 173.101 99.9412 170.24C105.189 167.141 109.244 159.988 109.244 154.027C109.482 148.066 105.189 145.682 99.9412 148.543Z" fill="#D1D3D4"/>
<path id="Vector_90" d="M99.9411 155.457C98.987 155.934 98.0329 156.888 97.5559 158.08C96.8403 159.272 96.6018 160.465 96.6018 161.418C96.6018 163.564 98.2715 164.518 100.18 163.326C101.134 162.849 102.088 161.895 102.565 160.703C103.28 159.511 103.519 158.319 103.519 157.365C103.519 155.219 101.849 154.265 99.9411 155.457Z" fill="#659EC9"/>
</g>
<g id="Group_16">
<path id="Vector_91" d="M94.6937 195.037L172.929 149.974L167.205 146.635L88.9691 191.699L94.6937 195.037Z" fill="#0C9FE1"/>
<path id="Vector_92" d="M94.6937 210.058L172.929 164.995V149.974L94.6937 195.037V210.058Z" fill="#9BE0FF"/>
<path id="Vector_93" d="M94.6937 210.058V195.037L88.9691 191.699V206.72L94.6937 210.058Z" fill="#0C5778"/>
</g>
<g id="Group_17">
<g id="Group_18">
<path id="Vector_94" d="M99.7027 159.272L96.6019 157.365L103.519 153.312L106.62 155.219L99.7027 159.272Z" fill="#0C9FE1"/>
<path id="Vector_95" d="M99.7027 189.315L96.6019 187.646V157.365L99.7027 159.272V189.315Z" fill="#9BE0FF"/>
<path id="Vector_96" d="M99.7027 189.315L106.62 185.5V155.219L99.7027 159.272V189.315Z" fill="#0C5778"/>
</g>
<g id="Group_19">
<path id="Vector_97" d="M137.151 137.337L134.05 135.668L140.967 131.614L144.068 133.283L137.151 137.337Z" fill="#0C9FE1"/>
<path id="Vector_98" d="M137.151 167.617L134.05 165.71V135.668L137.151 137.337V167.617Z" fill="#9BE0FF"/>
<path id="Vector_99" d="M137.151 167.617L144.068 163.564V133.283L137.151 137.337V167.617Z" fill="#0C5778"/>
</g>
<g id="Group_20">
<path id="Vector_100" d="M118.546 128.515L115.207 126.846L122.362 122.792L125.463 124.7L118.546 128.515Z" fill="#0C9FE1"/>
<path id="Vector_101" d="M118.546 178.347L115.207 176.678V126.846L118.546 128.515V178.347Z" fill="#9BE0FF"/>
<path id="Vector_102" d="M118.546 178.347L125.463 174.294V124.7L118.546 128.515V178.347Z" fill="#0C5778"/>
</g>
<g id="Group_21">
<path id="Vector_103" d="M155.994 107.056L152.893 105.148L159.81 101.095L162.911 103.002L155.994 107.056Z" fill="#0C9FE1"/>
<path id="Vector_104" d="M155.994 156.65L152.893 154.981V105.148L155.994 107.056V156.65Z" fill="#9BE0FF"/>
<path id="Vector_105" d="M155.994 156.65L162.911 152.596V103.002L155.994 107.056V156.65Z" fill="#0C5778"/>
</g>
</g>
<g id="Group_22">
<g id="Group_23">
<path id="Vector_106" d="M214.671 103.718L207.515 99.6645L187.479 111.348L188.672 116.355L194.635 115.401L214.671 103.718Z" fill="#0C9FE1"/>
<path id="Vector_107" d="M194.635 115.401L197.259 155.458L217.533 143.774V124.7V118.739L214.671 103.718L194.635 115.401Z" fill="#9BE0FF"/>
<g id="Group_24">
<path id="Vector_108" d="M215.625 114.209L208.946 118.024L208.708 117.547L215.148 113.97L213.717 106.817L214.194 106.579L215.625 114.209Z" fill="#0C5778"/>
<path id="Vector_109" d="M215.148 113.97L208.708 117.547L207.515 110.394L213.717 106.817L215.148 113.97Z" fill="#0D0D0D"/>
<path id="Vector_110" d="M212.763 108.725L208.231 111.109L207.992 110.871L212.524 108.248L212.763 108.725Z" fill="#FFEC7A"/>
<path id="Vector_111" d="M212.763 109.679L208.469 112.301L208.231 111.824L212.763 109.202V109.679Z" fill="#FFEC7A"/>
<path id="Vector_112" d="M213.717 113.732L209.185 116.355V115.878L213.717 113.494V113.732Z" fill="#FFEC7A"/>
<path id="Vector_113" d="M213.001 110.632L210.139 112.301V111.825L213.001 110.155V110.632Z" fill="#FFEC7A"/>
</g>
<path id="Vector_114" d="M205.845 117.07L202.268 119.216L202.029 118.262L205.845 116.116V117.07Z" fill="#FFEC7A"/>
<path id="Vector_115" d="M199.882 115.163L196.305 117.308L196.066 116.116L199.644 113.97L199.882 115.163Z" fill="#EB5C44"/>
<g id="Group_25">
<path id="Vector_116" d="M197.259 117.547L197.974 121.839L198.69 121.6L197.736 117.07L197.259 117.547Z" fill="#0D0D0D"/>
<path id="Vector_117" d="M198.928 116.355L199.882 120.885L200.359 120.646L199.644 116.116L198.928 116.355Z" fill="#0D0D0D"/>
<g id="Group_26">
<path id="Vector_118" d="M200.359 118.262L197.974 121.123L197.736 120.885L197.497 119.693L200.121 118.262H200.359Z" fill="#295E87"/>
<path id="Vector_119" d="M200.598 119.454L197.974 121.123L197.736 119.931L200.359 118.262L200.598 119.454Z" fill="#517FA2"/>
</g>
</g>
<g id="Group_27">
<path id="Vector_120" d="M202.268 114.686L201.314 115.163L201.075 114.209L202.029 113.732L202.268 114.686Z" fill="#EB5C44"/>
<path id="Vector_121" d="M203.699 113.732L202.745 114.209V113.255L203.46 112.778L203.699 113.732Z" fill="#FFEC7A"/>
<path id="Vector_122" d="M205.13 112.778L204.414 113.255L204.176 112.301L204.891 111.824L205.13 112.778Z" fill="#517FA2"/>
<path id="Vector_123" d="M202.506 115.878L201.552 116.355V115.401L202.268 114.924L202.506 115.878Z" fill="#FFEC7A"/>
<path id="Vector_124" d="M203.937 114.924L203.222 115.401L202.983 114.447L203.699 113.97L203.937 114.924Z" fill="#EB5C44"/>
<path id="Vector_125" d="M205.368 114.209L204.653 114.686L204.414 113.732L205.13 113.255L205.368 114.209Z" fill="#517FA2"/>
<path id="Vector_126" d="M202.745 117.07L201.791 117.547V116.593L202.506 116.116L202.745 117.07Z" fill="#517FA2"/>
<path id="Vector_127" d="M204.176 116.355L203.46 116.832L203.222 115.878L203.937 115.401L204.176 116.355Z" fill="#EB5C44"/>
<path id="Vector_128" d="M205.607 115.401L204.891 115.878L204.653 114.924L205.607 114.447V115.401Z" fill="#FFEC7A"/>
</g>
<path id="Vector_129" d="M207.992 120.646L198.451 126.369L197.974 123.508L207.515 118.024L207.992 120.646Z" fill="#517FA2"/>
<path id="Vector_130" d="M197.259 130.422L194.635 115.401L187.479 111.348V149.735L197.259 155.457V136.383V130.422Z" fill="#0C5778"/>
<g id="Group_28">
<path id="Vector_131" d="M205.607 111.586L206.561 117.547L207.515 117.07L206.323 111.109L205.607 111.586Z" fill="#0D0D0D"/>
<path id="Vector_132" d="M208.946 109.917L205.607 111.824L205.845 112.54L209.423 110.394L208.946 109.917Z" fill="#517FA2"/>
<path id="Vector_133" d="M209.185 109.679C208.946 109.917 208.946 110.155 208.946 110.394C209.185 110.632 209.423 110.632 209.662 110.632C209.9 110.394 209.9 110.155 209.9 109.917C209.662 109.44 209.423 109.44 209.185 109.679Z" fill="#EB5C44"/>
</g>
</g>
<g id="Group_29">
<path id="Vector_134" d="M218.249 126.607C218.249 126.846 217.295 127.799 217.295 127.799L216.817 127.561V126.369L217.295 125.654H217.533C217.294 125.654 218.249 126.369 218.249 126.607Z" fill="#050505"/>
<path id="Vector_135" d="M219.918 122.315C219.918 122.315 217.533 125.177 217.295 125.415C217.295 125.892 217.533 126.369 218.249 126.607C219.203 125.654 222.065 123.746 222.065 123.746L222.304 123.031L221.588 121.839L220.872 121.6L220.157 121.839L219.918 122.315Z" fill="#F0C6B4"/>
<path id="Vector_136" d="M217.056 115.639C219.68 114.686 220.872 117.07 220.872 117.07C220.872 117.07 223.973 119.693 223.973 120.408C224.212 121.6 222.781 123.031 222.781 123.031C222.781 123.031 221.349 121.123 220.634 120.885C219.68 120.408 218.726 119.216 218.726 119.216C218.726 119.216 216.579 116.116 217.056 115.639Z" fill="#F26716"/>
<path id="Vector_137" d="M223.258 123.031C223.258 122.554 223.019 122.077 222.304 121.6C221.588 121.123 220.634 121.123 220.395 121.362C219.918 121.839 219.68 122.077 219.918 122.315C220.157 122.315 220.157 122.077 221.111 122.554C222.065 123.031 222.065 123.746 222.065 123.746C222.304 124.223 223.258 123.508 223.258 123.031Z" fill="#FFA769"/>
<path id="Vector_138" d="M220.634 121.123C220.634 121.123 223.019 120.408 222.781 120.17C221.826 119.931 220.634 121.123 220.634 121.123Z" fill="#9C5725"/>
<path id="Vector_139" opacity="0.3" d="M218.726 156.411C215.863 158.08 211.331 158.08 208.469 156.411C205.607 154.742 205.607 152.119 208.469 150.45C211.331 148.781 215.863 148.781 218.726 150.45C221.588 152.119 221.588 154.742 218.726 156.411Z" fill="black"/>
<path id="Vector_140" d="M216.102 114.686C216.102 115.401 216.579 116.355 216.579 116.355L215.863 117.07L214.432 117.785L213.24 117.547C213.24 117.547 212.763 117.547 212.763 117.07C213.001 116.116 212.763 114.924 212.763 114.924L213.717 113.97C213.717 113.97 216.34 114.447 216.102 114.686Z" fill="#F0C6B4"/>
<path id="Vector_141" d="M211.093 110.871C210.377 112.301 211.331 115.401 211.57 115.639C211.808 115.878 212.763 115.639 212.763 115.639C212.763 115.639 213.478 114.924 213.717 114.209C213.955 113.494 213.24 111.825 213.24 111.825L212.047 110.394C212.047 110.394 211.093 110.632 211.093 110.871Z" fill="#F0C6B4"/>
<path id="Vector_142" d="M216.102 114.686C215.386 115.639 213.955 115.163 213.717 115.163C213.001 114.924 213.001 113.494 212.286 113.017C212.047 112.778 211.808 113.255 211.57 113.017C211.331 113.017 211.331 112.301 211.093 111.824C211.093 111.348 210.854 111.109 210.854 111.109C210.854 110.871 210.616 110.871 210.377 111.109C210.377 110.871 210.616 110.632 210.854 110.394C210.854 110.155 210.616 110.394 210.616 110.394C211.331 109.679 213.478 108.725 215.148 109.679C215.148 109.679 215.386 109.679 215.386 109.44C215.625 109.679 215.625 109.917 215.625 110.155C215.625 110.155 215.863 110.155 216.34 110.155C216.102 110.394 216.102 110.394 216.102 110.632C216.817 111.109 217.295 113.255 216.102 114.686Z" fill="#383838"/>
<path id="Vector_143" d="M218.726 151.643C218.726 151.643 219.203 153.55 218.01 153.55C217.056 153.55 216.102 151.881 216.102 151.881C216.102 151.881 214.432 150.927 214.671 149.974C214.671 149.258 216.579 149.497 216.579 149.497L218.726 151.643Z" fill="white"/>
<path id="Vector_144" d="M213.717 154.027C213.717 154.027 214.194 155.696 213.24 155.934C210.377 156.411 207.992 155.696 207.515 155.458C207.038 155.458 206.084 153.788 207.277 153.788C208.469 153.55 210.616 153.073 210.616 153.073L213.717 154.027Z" fill="white"/>
<path id="Vector_145" d="M218.726 151.404C218.726 151.404 219.203 153.312 218.01 153.312C217.056 153.312 216.102 151.643 216.102 151.643C216.102 151.643 214.432 150.689 214.671 149.735C214.671 149.02 216.579 149.258 216.579 149.258L218.726 151.404Z" fill="#EB5C44"/>
<path id="Vector_146" d="M218.249 132.091C218.249 132.091 218.487 136.145 218.249 140.436C218.249 141.39 219.203 142.582 219.203 144.013C219.203 144.967 219.203 147.112 219.203 148.781C219.203 149.974 219.203 151.166 218.964 151.166C217.056 151.643 215.863 150.689 215.863 149.497C215.863 148.305 215.625 144.728 215.386 142.582C214.194 140.198 213.478 133.999 213.478 133.999L218.249 132.091Z" fill="#00537D"/>
<path id="Vector_147" d="M213.717 153.788C213.717 153.788 214.194 155.458 213.24 155.696C210.377 155.934 207.992 155.458 207.515 155.219C207.038 155.219 206.084 153.55 207.277 153.55C208.469 153.312 210.616 152.835 210.616 152.835L213.717 153.788Z" fill="#EB5C44"/>
<path id="Vector_148" d="M217.295 127.323C217.295 127.323 213.24 129.468 212.047 129.468C210.377 129.707 209.662 128.753 209.423 128.038C208.469 134.952 209.9 142.821 209.9 142.821C209.9 142.821 210.854 149.02 209.9 152.835C210.139 153.789 212.524 154.981 213.955 154.027C214.909 153.312 214.432 145.205 213.717 144.013L214.909 135.191C214.909 135.191 217.056 134.476 218.249 133.045C219.203 131.614 217.295 127.323 217.295 127.323Z" fill="#1078AD"/>
<path id="Vector_149" d="M203.699 116.593C203.699 116.593 204.414 114.924 204.414 114.447C204.414 113.97 204.176 113.255 203.222 113.017C202.745 112.778 201.552 113.255 201.313 113.732C201.313 114.209 201.552 114.447 201.552 114.447C201.552 114.447 201.313 115.639 201.552 116.116C201.552 116.355 201.791 116.593 201.791 116.593H202.745H203.699Z" fill="#050505"/>
<path id="Vector_150" d="M204.653 119.931C204.653 119.931 204.176 118.501 203.699 116.832C203.222 116.355 202.029 117.07 202.029 117.07C202.029 117.07 202.029 119.931 202.029 121.123C202.268 121.123 204.653 119.931 204.653 119.931Z" fill="#F0C6B4"/>
<path id="Vector_151" d="M205.13 121.362C205.607 121.123 205.607 119.931 204.653 119.454C203.699 118.977 202.506 119.693 202.029 120.408C201.313 121.839 202.506 122.316 202.506 122.316C202.506 122.316 204.653 121.6 205.13 121.362Z" fill="#FFA769"/>
<path id="Vector_152" d="M216.579 115.878C214.671 117.308 212.763 117.07 212.763 117.07C212.763 117.07 210.139 118.977 209.662 119.931C207.754 122.792 209.662 126.369 209.423 126.607C209.423 127.084 209.423 127.799 209.423 127.799C209.423 127.799 209.423 128.276 210.377 128.992C211.331 129.707 213.955 128.753 213.955 128.753L217.056 126.607L218.249 122.316L218.726 121.6C218.726 121.6 219.203 120.885 219.441 118.977C219.918 117.547 218.964 115.401 216.579 115.878Z" fill="#FF8530"/>
<path id="Vector_153" d="M210.139 128.515C211.331 128.753 212.763 124.223 212.763 124.223L218.964 121.123C218.964 121.123 218.249 124.938 217.295 127.084C217.056 127.323 214.194 129.707 214.194 129.707L211.093 130.184L209.423 128.515C209.423 128.515 209.185 127.799 209.185 126.607C209.423 126.607 209.185 128.038 210.139 128.515Z" fill="#1078AD"/>
<path id="Vector_154" d="M213.24 124.461C213.24 124.461 213.955 120.646 212.524 119.216C211.809 118.501 210.139 119.216 210.139 119.216C210.616 118.501 211.331 118.262 211.331 118.262C211.331 118.262 212.524 117.547 213.717 118.977C214.909 120.646 214.194 124.223 214.194 124.223L213.24 124.461Z" fill="#1078AD"/>
<path id="Vector_155" d="M217.295 122.554C217.295 122.554 219.918 117.07 216.579 115.878C216.579 115.878 217.056 115.639 217.772 115.878C220.634 117.07 218.487 121.839 218.487 121.839L217.295 122.554Z" fill="#1078AD"/>
<path id="Vector_156" d="M212.524 120.17C211.57 118.024 208.469 120.17 208.469 120.17L205.607 121.839C205.607 121.839 205.368 121.123 205.368 120.885C204.891 120.408 202.745 121.362 202.983 122.315C203.222 123.269 204.653 124.938 205.13 125.177C206.084 125.415 210.854 123.031 210.854 123.031C210.854 123.031 213.478 122.315 212.524 120.17Z" fill="#F26716"/>
</g>
</g>
</g>
</svg>
