<svg width="40" height="40" viewBox="0 0 40 40" fill="none" xmlns="http://www.w3.org/2000/svg">
<g id="clarity:administrator-line" clip-path="url(#clip0_57_677)">
<path id="Vector" d="M16.3112 16.4556C14.8251 16.4556 13.3725 16.0148 12.1371 15.1889C10.9016 14.3631 9.93891 13.1894 9.37074 11.8162C8.80257 10.4431 8.65447 8.93232 8.94519 7.475C9.23591 6.01769 9.95238 4.67936 11.0039 3.62935C12.0555 2.57935 13.3949 1.86486 14.8526 1.5763C16.3104 1.28774 17.821 1.43807 19.1932 2.00827C20.5655 2.57848 21.7378 3.54292 22.5618 4.77958C23.3858 6.01624 23.8245 7.46952 23.8223 8.95555C23.8164 10.9448 23.0228 12.8507 21.6152 14.2563C20.2075 15.6619 18.3004 16.4526 16.3112 16.4556ZM16.3112 3.66666C15.2651 3.66666 14.2426 3.97685 13.3728 4.558C12.5031 5.13915 11.8252 5.96516 11.4249 6.93158C11.0246 7.898 10.9198 8.96142 11.1239 9.98736C11.328 11.0133 11.8317 11.9557 12.5713 12.6954C13.311 13.435 14.2534 13.9387 15.2793 14.1428C16.3053 14.3469 17.3687 14.2422 18.3351 13.8418C19.3015 13.4415 20.1276 12.7637 20.7087 11.8939C21.2899 11.0241 21.6 10.0016 21.6 8.95555C21.6 7.55285 21.0428 6.2076 20.051 5.21574C19.0591 4.22388 17.7139 3.66666 16.3112 3.66666Z" fill="white"/>
<path id="Vector_2" d="M18.2444 35.2C18.0016 34.9571 17.8142 34.6644 17.6953 34.3422C17.5764 34.0199 17.5287 33.6758 17.5555 33.3333H4.44439V26.9111C6.01984 25.23 7.93073 23.8985 10.0534 23.0028C12.176 22.107 14.4631 21.667 16.7666 21.7111H17.5666C17.5156 21.3386 17.5512 20.9593 17.6707 20.6028C17.7902 20.2463 17.9903 19.9221 18.2555 19.6556L18.3888 19.5333C17.8666 19.5333 17.2777 19.4667 16.7666 19.4667C14.0559 19.4023 11.3649 19.9411 8.88792 21.0441C6.41097 22.1471 4.21009 23.7867 2.44439 25.8444C2.30014 26.0368 2.22217 26.2707 2.22217 26.5111V33.3333C2.22217 33.9227 2.45629 34.4879 2.87304 34.9047C3.28979 35.3214 3.85502 35.5556 4.44439 35.5556H18.5555L18.2444 35.2Z" fill="white"/>
<path id="Vector_3" d="M29.8555 18.1C29.9104 18.0886 29.9672 18.0886 30.0221 18.1C29.967 18.09 29.9106 18.09 29.8555 18.1Z" fill="white"/>
<path id="Vector_4" d="M37.4221 25.9111L35.1999 25.2333C35.0411 24.6898 34.825 24.1646 34.5555 23.6667L35.6666 21.6C35.7027 21.5173 35.7114 21.4253 35.6914 21.3373C35.6714 21.2493 35.6238 21.17 35.5555 21.1111L33.9444 19.5C33.8834 19.434 33.8021 19.3905 33.7134 19.3764C33.6247 19.3623 33.5339 19.3784 33.4555 19.4222L31.411 20.5333C30.9076 20.2503 30.3748 20.0231 29.8221 19.8556L29.1444 17.6333C29.1156 17.5515 29.061 17.4813 28.9889 17.4332C28.9167 17.3851 28.8309 17.3618 28.7444 17.3667H26.4666C26.3791 17.3657 26.2937 17.3934 26.2234 17.4455C26.1532 17.4977 26.102 17.5715 26.0777 17.6556L25.3999 19.8778C24.8434 20.0397 24.3067 20.2633 23.7999 20.5444L21.7777 19.4333C21.701 19.3904 21.612 19.3747 21.5252 19.3888C21.4385 19.4029 21.359 19.4461 21.2999 19.5111L19.6555 21.1111C19.5945 21.1753 19.5552 21.2571 19.5433 21.3448C19.5313 21.4325 19.5472 21.5218 19.5888 21.6L20.6999 23.6222C20.406 24.1231 20.1711 24.6562 19.9999 25.2111L17.7777 25.8778C17.6936 25.9021 17.6199 25.9533 17.5677 26.0235C17.5155 26.0938 17.4878 26.1792 17.4888 26.2667V28.5444C17.4954 28.6247 17.5267 28.7009 17.5784 28.7626C17.6302 28.8243 17.6998 28.8685 17.7777 28.8889L19.9999 29.5667C20.1641 30.1117 20.3877 30.6371 20.6666 31.1333L19.5555 33.2556C19.5131 33.3316 19.4966 33.4194 19.5087 33.5056C19.5207 33.5919 19.5605 33.6718 19.6221 33.7333L21.2332 35.3444C21.2962 35.4072 21.3773 35.4485 21.4651 35.4625C21.5529 35.4765 21.6428 35.4624 21.7221 35.4222L23.7999 34.3111C24.2944 34.5771 24.8159 34.7894 25.3555 34.9444L26.0221 37.1667C26.0495 37.2489 26.1014 37.3207 26.171 37.3724C26.2406 37.4241 26.3244 37.4531 26.411 37.4556H28.6888C28.7759 37.4548 28.8604 37.4264 28.9303 37.3745C29.0002 37.3226 29.0518 37.2498 29.0777 37.1667L29.7555 34.8889C30.2879 34.7337 30.802 34.5213 31.2888 34.2556L33.3888 35.3667C33.466 35.4077 33.5545 35.4223 33.6408 35.4083C33.7271 35.3942 33.8064 35.3523 33.8666 35.2889L35.5555 33.7778C35.6009 33.7126 35.6252 33.635 35.6252 33.5556C35.6252 33.4761 35.6009 33.3985 35.5555 33.3333L34.4444 31.2444C34.7141 30.7543 34.9302 30.2365 35.0888 29.7L37.311 29.0222C37.3951 28.9979 37.4689 28.9467 37.521 28.8765C37.5732 28.8062 37.6009 28.7208 37.5999 28.6333V26.3C37.6101 26.225 37.5988 26.1486 37.5673 26.0798C37.5359 26.011 37.4855 25.9525 37.4221 25.9111ZM27.611 31.1111C26.8761 31.1133 26.1571 30.8972 25.5451 30.4903C24.9331 30.0834 24.4557 29.5039 24.1734 28.8253C23.8912 28.1468 23.8167 27.3997 23.9596 26.6787C24.1024 25.9578 24.4561 25.2955 24.9758 24.7759C25.4955 24.2562 26.1577 23.9025 26.8786 23.7597C27.5996 23.6168 28.3467 23.6913 29.0252 23.9735C29.7038 24.2558 30.2833 24.7332 30.6902 25.3452C31.0972 25.9571 31.3132 26.6762 31.311 27.4111C31.3081 28.3915 30.9173 29.3309 30.2241 30.0242C29.5308 30.7174 28.5914 31.1082 27.611 31.1111Z" fill="white"/>
</g>
<defs>
<clipPath id="clip0_57_677">
<rect width="40" height="40" fill="white"/>
</clipPath>
</defs>
</svg>
