<svg width="24" height="24" viewBox="0 0 24 24" fill="none" xmlns="http://www.w3.org/2000/svg">
<g id="fontisto:import" clip-path="url(#clip0_55_568)">
<path id="Vector" d="M22.909 14.837H19.637V9.09099C19.6375 8.8383 19.5494 8.59343 19.388 8.399L19.389 8.401L19.386 8.395C19.366 8.37105 19.345 8.34803 19.323 8.326L19.314 8.317L19.286 8.288L11.32 0.321996C11.2973 0.29956 11.2732 0.278522 11.248 0.258996L11.222 0.238996L11.169 0.198996L11.143 0.179996C11.1239 0.167964 11.1045 0.156295 11.085 0.144996L11.061 0.130996C11.035 0.116996 11.008 0.103996 10.98 0.0919956L10.946 0.0769956L10.891 0.0569956L10.852 0.0449956L10.789 0.0289956L10.76 0.0219956C10.729 0.0159956 10.698 0.0119956 10.667 0.00799561H1.09198C0.491976 0.00799561 0.00497656 0.491996 0.000976562 1.091V22.909C0.000976562 23.512 0.489977 24 1.09198 24H18.546C19.149 24 19.637 23.511 19.637 22.909V17.018H22.941C23.2303 17.018 23.5078 16.9031 23.7124 16.6985C23.917 16.4938 24.032 16.2163 24.032 15.927C24.032 15.6376 23.917 15.3601 23.7124 15.1555C23.5078 14.9509 23.2303 14.836 22.941 14.836L22.909 14.837ZM11.636 3.724L15.911 8H11.636V3.724ZM17.454 21.817H2.18198V2.181H9.45498V9.09C9.45498 9.693 9.94398 10.181 10.546 10.181H17.455V14.836H13.179L14.044 13.971C14.2341 13.7637 14.3369 13.491 14.3308 13.2098C14.3247 12.9286 14.2102 12.6606 14.0113 12.4617C13.8123 12.2629 13.5442 12.1486 13.263 12.1427C12.9818 12.1368 12.7091 12.2397 12.502 12.43L12.503 12.429L9.76498 15.169C9.74394 15.19 9.72392 15.2121 9.70498 15.235L9.68498 15.261C9.66998 15.281 9.65398 15.3 9.63998 15.321L9.62598 15.343C9.61103 15.3654 9.59702 15.3884 9.58398 15.412L9.57598 15.428C9.5619 15.4543 9.54921 15.4813 9.53798 15.509V15.52C9.52632 15.5483 9.51565 15.577 9.50598 15.606V15.618C9.49679 15.6479 9.48911 15.6783 9.48298 15.709V15.736C9.47898 15.762 9.47398 15.788 9.47098 15.815C9.462 15.8887 9.462 15.9633 9.47098 16.037V16.032C9.47098 16.059 9.47798 16.084 9.48298 16.111V16.138C9.48898 16.17 9.49798 16.2 9.50598 16.231V16.242C9.51532 16.2726 9.52634 16.3026 9.53898 16.332V16.342C9.55098 16.369 9.56398 16.397 9.57798 16.423L9.58598 16.438C9.59902 16.4619 9.61303 16.4852 9.62798 16.508L9.64098 16.529L9.68698 16.592L9.70498 16.616C9.72598 16.642 9.74798 16.666 9.77098 16.69L9.77598 16.696L12.503 19.423C12.6025 19.5315 12.7229 19.6187 12.857 19.6794C12.9911 19.7401 13.1361 19.773 13.2833 19.7762C13.4304 19.7794 13.5767 19.7528 13.7133 19.6979C13.8499 19.6431 13.974 19.5612 14.0781 19.4571C14.1822 19.3531 14.2642 19.2291 14.3191 19.0925C14.374 18.9559 14.4008 18.8097 14.3977 18.6625C14.3946 18.5153 14.3617 18.3703 14.3011 18.2362C14.2405 18.1021 14.1534 17.9816 14.045 17.882L14.044 17.881L13.179 17.016H17.454V21.817Z" fill="white"/>
</g>
<defs>
<clipPath id="clip0_55_568">
<rect width="24" height="24" fill="white"/>
</clipPath>
</defs>
</svg>
