<svg width="30" height="30" viewBox="0 0 30 30" fill="none" xmlns="http://www.w3.org/2000/svg">
<g id="clarity:eye-hide-solid" clip-path="url(#clip0_8_231)">
<path id="Vector" d="M15.3083 9.30833C14.6339 9.30912 13.965 9.43047 13.3333 9.66667L20.6666 17C20.906 16.3605 21.0274 15.6828 21.025 15C21.0184 13.4882 20.4132 12.0405 19.3418 10.9739C18.2704 9.90718 16.8201 9.30832 15.3083 9.30833Z" fill="#0672A3"/>
<path id="Vector_2" d="M28.575 14.6083C25.7667 9.41667 20.8417 6.275 15.3917 6.275C13.9078 6.27848 12.4339 6.51757 11.025 6.98333L12.3667 8.33333C13.3549 8.07794 14.371 7.94638 15.3917 7.94167C20.0834 7.94167 24.35 10.5583 26.8917 14.9667C25.9593 16.6022 24.7233 18.0447 23.25 19.2167L24.4334 20.4C26.1384 19.0244 27.5545 17.3252 28.6 15.4L28.8167 15L28.575 14.6083Z" fill="#0672A3"/>
<path id="Vector_3" d="M4.05834 4.81667L7.775 8.53333C5.42577 10.0459 3.50576 12.1381 2.2 14.6083L1.98334 15L2.2 15.4C5.00834 20.5917 9.93334 23.7333 15.3833 23.7333C17.5106 23.7329 19.6101 23.2515 21.525 22.325L25.6917 26.4917L27.15 25.2417L5.48334 3.575L4.05834 4.81667ZM10.975 11.7333C10.1954 12.8328 9.82994 14.1727 9.94343 15.5158C10.0569 16.8589 10.642 18.1185 11.5951 19.0716C12.5482 20.0247 13.8078 20.6097 15.1508 20.7232C16.4939 20.8367 17.8338 20.4713 18.9333 19.6917L20.2667 21.025C18.7232 21.6848 17.062 22.025 15.3833 22.025C10.6917 22.025 6.425 19.4083 3.88334 15C5.10309 12.8402 6.85977 11.0318 8.98334 9.75L10.975 11.7333Z" fill="#0672A3"/>
</g>
<defs>
<clipPath id="clip0_8_231">
<rect width="30" height="30" fill="white"/>
</clipPath>
</defs>
</svg>
